<?xml version="1.0" encoding="iso-8859-1"?>
<!-- Generator: Adobe Illustrator 19.0.0, SVG Export Plug-In . SVG Version: 6.00 Build 0)  -->
<svg version="1.1" id="Capa_1" xmlns="http://www.w3.org/2000/svg" xmlns:xlink="http://www.w3.org/1999/xlink" x="0px" y="0px"
	 viewBox="0 0 512 512" style="enable-background:new 0 0 512 512;" xml:space="preserve">
<path style="fill:#0099FF;" d="M288.654,232.32c-1.336-5.08-5.272-9.067-10.334-10.472c-11.603-3.221-21.622-11.14-27.49-21.73
	l-0.002-0.004c-3.344-6.029-10.281-8.803-16.659-7.129H219.15c-3.917,0-7.673,1.557-10.443,4.326l-81.859,81.857
	c-8.369,8.369-12.977,19.495-12.977,31.33c0,11.835,4.609,22.961,12.977,31.33s19.495,12.977,31.33,12.977
	s22.961-4.609,31.329-12.977l95.306-95.306C288.529,242.808,289.991,237.401,288.654,232.32z"/>
<path style="fill:#00B3FE;" d="M234.169,192.985H219.15c-3.917,0-7.673,1.557-10.444,4.326l-81.858,81.857
	c-8.368,8.368-12.977,19.495-12.977,31.33c0,11.835,4.609,22.961,12.977,31.33L258.466,210.21
	c-2.982-2.977-5.571-6.366-7.637-10.093l-0.002-0.004C247.484,194.084,240.545,191.309,234.169,192.985z"/>
<path style="fill:#21D8DE;" d="M244.754,178.215c0-7.681,2.111-15.279,6.104-21.973c2.722-4.564,2.783-10.238,0.159-14.859
	c-2.625-4.621-7.528-7.475-12.842-7.475H73.846c-24.431,0-44.308,19.876-44.308,44.308s19.876,44.308,44.308,44.308h164.326
	c5.314,0,10.218-2.854,12.842-7.475s2.564-10.295-0.159-14.859C246.864,193.495,244.754,185.896,244.754,178.215z"/>
<path style="fill:#29EDED;" d="M238.173,133.908H73.846c-24.101,0-43.755,19.346-44.283,43.323h215.223
	c0.172-7.343,2.248-14.581,6.07-20.988c2.722-4.564,2.783-10.238,0.159-14.859C248.39,136.762,243.487,133.908,238.173,133.908z"/>
<g>
	<path style="fill:#EEF8FF;" d="M290.462,118.154c-33.171,0-60.062,26.891-60.062,60.062s26.891,60.062,60.062,60.062V118.154z"/>
	<path style="fill:#EEF8FF;" d="M290.462,253.046c-41.262,0-74.831-33.568-74.831-74.831s33.568-74.831,74.831-74.831
		c8.157,0,14.769,6.613,14.769,14.769v120.123C305.231,246.433,298.618,253.046,290.462,253.046z M275.692,135.395
		c-17.745,6.137-30.523,23.015-30.523,42.82s12.778,36.683,30.523,42.82V135.395z"/>
</g>
<path style="fill:#EBDBDD;" d="M290.462,103.385c-41.262,0-74.831,33.568-74.831,74.831s33.568,74.831,74.831,74.831
	c8.157,0,14.769-6.613,14.769-14.769V118.154C305.231,109.997,298.618,103.385,290.462,103.385z"/>
<path style="fill:#EEF8FF;" d="M290.462,103.385c-40.931,0-74.274,33.038-74.806,73.846h89.575v-59.077
	C305.231,109.997,298.618,103.385,290.462,103.385z"/>
<path style="fill:#00457D;" d="M448,0H310.154c-19.002,0-34.462,15.459-34.462,34.462v462.769c0,8.157,6.613,14.769,14.769,14.769
	h177.231c8.157,0,14.769-6.613,14.769-14.769V34.462C482.462,15.459,467.002,0,448,0z"/>
<path style="fill:#0072AE;" d="M379.077,0h-68.923c-19.002,0-34.462,15.459-34.462,34.462v462.769
	c0,8.157,6.613,14.769,14.769,14.769h88.615V0z"/>
<path style="fill:#B7293F;" d="M482.462,418.462H275.692v78.769c0,8.157,6.613,14.769,14.769,14.769h177.231
	c8.157,0,14.769-6.613,14.769-14.769V418.462z"/>
<path style="fill:#F0204B;" d="M379.077,418.462H275.692v78.769c0,8.157,6.613,14.769,14.769,14.769h88.615V418.462z"/>
<path style="fill:#EBDBDD;" d="M418.462,83.692h-78.769c-8.157,0-14.769,6.613-14.769,14.769v39.385
	c0,8.157,6.613,14.769,14.769,14.769h78.769c8.157,0,14.769-6.613,14.769-14.769V98.462
	C433.231,90.305,426.618,83.692,418.462,83.692z"/>
<path style="fill:#EEF8FF;" d="M379.077,83.692h-39.385c-8.157,0-14.769,6.613-14.769,14.769v39.385
	c0,8.157,6.613,14.769,14.769,14.769h39.385V83.692z"/>
<g>
</g>
<g>
</g>
<g>
</g>
<g>
</g>
<g>
</g>
<g>
</g>
<g>
</g>
<g>
</g>
<g>
</g>
<g>
</g>
<g>
</g>
<g>
</g>
<g>
</g>
<g>
</g>
<g>
</g>
</svg>
