<?xml version="1.0"?>
<svg xmlns="http://www.w3.org/2000/svg" id="Layer_1" data-name="Layer 1" viewBox="0 0 512 512" width="512" height="512"><title> Delivery  location map</title><path d="M400,278.83c47.43,0,81.93,37.5,84.82,79.85a81.026,81.026,0,0,1-5.06,33.78,88.884,88.884,0,0,1-19.43,30.19L400,485.62l-60.33-62.97a98.114,98.114,0,0,1-6.57-7.57,84.851,84.851,0,0,1-12.86-22.62,81.026,81.026,0,0,1-5.06-33.78C318.07,316.33,352.57,278.83,400,278.83Zm55.52,78.85A55.521,55.521,0,1,0,400,413.55,55.7,55.7,0,0,0,455.52,357.68Z" style="fill:#6fe3ff"/><path d="M400,135.55V278.83c-47.43,0-81.93,37.5-84.82,79.85a81.026,81.026,0,0,0,5.06,33.78,84.851,84.851,0,0,0,12.86,22.62L208,487.3V246.38L399.98,135.54Z" style="fill:#c16752"/><polygon points="208 246.38 141.14 207.78 333.13 96.94 399.98 135.54 208 246.38" style="fill:#e48e66"/><polygon points="333.13 96.94 141.14 207.78 92.21 179.53 284.19 68.69 333.13 96.94" style="fill:#e5d45a"/><polygon points="208 24.7 284.19 68.69 92.21 179.53 92.2 179.53 16.02 135.54 208 24.7" style="fill:#af593c"/><polygon points="208 246.38 208 487.3 16 376.45 16 135.55 16.02 135.54 92.2 179.53 92.2 339.28 115.45 329.68 140.8 358.48 140.8 207.98 141.14 207.78 208 246.38" style="fill:#e48e66"/><polygon points="141.14 207.78 140.8 207.98 140.8 358.48 115.45 329.68 92.2 339.28 92.2 179.53 92.21 179.53 141.14 207.78" style="fill:#f8ec7d"/><path d="M40.83,378.37a7,7,0,0,1-7-7V345.45a7,7,0,0,1,14,0v25.92A7,7,0,0,1,40.83,378.37Z" style="fill:#f8ec7d"/><path d="M69.25,395a7,7,0,0,1-7-7V364.65a7,7,0,0,1,14,0V388A7,7,0,0,1,69.25,395Z" style="fill:#f8ec7d"/><path d="M97.68,411.41a7,7,0,0,1-7-7V383.85a7,7,0,0,1,14,0v20.56A7,7,0,0,1,97.68,411.41Z" style="fill:#f8ec7d"/><path d="M126.1,427.82a7,7,0,0,1-7-7V403.05a7,7,0,0,1,14,0v17.77A7,7,0,0,1,126.1,427.82Z" style="fill:#f8ec7d"/><path d="M154.52,444.61a7,7,0,0,1-7-7V422.25a7,7,0,0,1,14,0v15.36A7,7,0,0,1,154.52,444.61Z" style="fill:#f8ec7d"/><path d="M247.776,384.941a7,7,0,0,1-3.506-13.064l31.89-18.41a7,7,0,1,1,7,12.125L251.27,384A6.965,6.965,0,0,1,247.776,384.941Z" style="fill:#f8ec7d"/><path d="M266.85,250.634a7,7,0,0,0-11.256,1.491l-16.9,31.44a7,7,0,0,0,6.16,10.316,7.185,7.185,0,0,0,6.292-3.687L255,283.247V343.42a7,7,0,1,0,14,0V273.051l5.69,6.155a6.929,6.929,0,0,0,9.836.284,7,7,0,0,0,.254-9.9Z" style="fill:#6fe3ff"/></svg>
