<?xml version="1.0"?>
<svg xmlns="http://www.w3.org/2000/svg" id="Layer_1" data-name="Layer 1" viewBox="0 0 512 512" width="512" height="512"><title> Delivery  location map</title><path d="M98,330.31l15.055-6.176A6.233,6.233,0,0,1,120,325.715l15,16.868V211.051L98,189.922Z"/><path d="M147,358.48a6.091,6.091,0,0,1-3.981,5.613,6.26,6.26,0,0,1-2.168.387,6.053,6.053,0,0,1-4.53-2.036l-22.533-25.582L94.5,344.825a6.207,6.207,0,0,1-5.731-.558A6.1,6.1,0,0,1,86,339.28V182.994L22,145.926V372.987L202,476.91V249.849l-55-31.87ZM47,371.367a6,6,0,0,1-12,0V345.446a6,6,0,0,1,12,0ZM75,388a6,6,0,0,1-12,0V364.646a6,6,0,0,1,12,0Zm29,16.41a6,6,0,0,1-12,0v-20.56a6,6,0,0,1,12,0Zm28,16.411a6,6,0,0,1-12,0V403.046a6,6,0,0,1,12,0Zm17,1.429a6,6,0,0,1,12,0v15.359a6,6,0,0,1-12,0Z"/><polygon points="272.19 68.686 208 31.625 28.013 135.541 92.203 172.601 272.19 68.686"/><polygon points="333.132 103.871 153.145 207.786 208 239.457 387.987 135.541 333.132 103.871"/><ellipse cx="400" cy="357.676" rx="49.521" ry="49.869"/><polygon points="141.145 200.858 321.131 96.942 284.19 75.614 104.203 179.529 141.145 200.858"/><path d="M309.192,358.267A92.48,92.48,0,0,1,336.681,298.6,89.51,89.51,0,0,1,394,273.043V145.926L214,249.849V476.91l110.313-63.689a88.119,88.119,0,0,1-9.693-18.667A86.545,86.545,0,0,1,309.192,358.267Zm-69.621-74.23,16.9-31.443a6,6,0,0,1,9.648-1.277l17.9,18.963a6,6,0,0,1-.245,8.482,5.857,5.857,0,0,1-8.362-.245L268,270.532v72.885a6,6,0,0,1-12,0v-64.15l-5.739,10.453a6.105,6.105,0,0,1-8.216,2.443A6.011,6.011,0,0,1,239.571,284.037Zm43.09,80.689-31.887,18.409a6,6,0,0,1-6-10.393l31.887-18.409a6,6,0,0,1,6,10.393Z"/><path d="M454.905,307.15a78.68,78.68,0,0,0-109.81,0,80.492,80.492,0,0,0-23.93,51.934,74.611,74.611,0,0,0,4.7,31.282A82.447,82.447,0,0,0,344.005,418.5l56,58.448L456,418.5a82.447,82.447,0,0,0,18.139-28.135,74.611,74.611,0,0,0,4.7-31.282A80.492,80.492,0,0,0,454.905,307.15ZM400,419.545c-33.922,0-61.521-27.754-61.521-61.869s27.6-61.868,61.521-61.868,61.521,27.754,61.521,61.868S433.922,419.545,400,419.545Z"/></svg>
