<svg enable-background="new 0 0 24 24" height="512" viewBox="0 0 24 24" width="512" xmlns="http://www.w3.org/2000/svg"><path d="m23.25 4.5h-5.5c-.41 0-.75.34-.75.75v5c0 .41.34.75.75.75h5.5c.41 0 .75-.34.75-.75v-5c0-.41-.34-.75-.75-.75z" fill="#ffcc80"/><path d="m21.25 4.5v2.25c0 .41-.34.75-.75.75s-.75-.34-.75-.75v-2.25z" fill="#795548"/><path d="m23.25 11h-5.5c-.41 0-.75.34-.75.75v5c0 .41.34.75.75.75h5.5c.41 0 .75-.34.75-.75v-5c0-.41-.34-.75-.75-.75z" fill="#ffb74d"/><path d="m21.25 11v2.25c0 .41-.34.75-.75.75s-.75-.34-.75-.75v-2.25z" fill="#795548"/><path d="m15.75 19h-14c-.965 0-1.75-.785-1.75-1.75v-4.5c0-1.517 1.233-2.75 2.75-2.75h3c.414 0 .75.336.75.75v.5c0 .689.561 1.25 1.25 1.25h8c.414 0 .75.336.75.75v5c0 .414-.336.75-.75.75z" fill="#ffc107"/><path d="m23.25 19h-7.5c-.414 0-.75-.336-.75-.75v-14.5c0-.414.336-.75.75-.75s.75.336.75.75v13.75h6.75c.414 0 .75.336.75.75s-.336.75-.75.75z" fill="#90a4ae"/><path d="m4.5 21c-1.379 0-2.5-1.122-2.5-2.5s1.121-2.5 2.5-2.5 2.5 1.122 2.5 2.5-1.121 2.5-2.5 2.5z" fill="#546e7a"/><path d="m11.5 21c-1.379 0-2.5-1.122-2.5-2.5s1.121-2.5 2.5-2.5 2.5 1.122 2.5 2.5-1.121 2.5-2.5 2.5z" fill="#546e7a"/><path d="m13.441 13.5h-5.691c-1.517 0-2.75-1.233-2.75-2.75v-6c0-.414.336-.75.75-.75h3.276c1.164 0 2.206.737 2.593 1.835l2.529 6.666c.081.229.046.484-.095.683s-.368.316-.612.316z" fill="#eceff1"/></svg>