<svg height="511pt" viewBox="1 -64 511.999 511" width="511pt" xmlns="http://www.w3.org/2000/svg"><path d="m230.046875 220.101562-51.542969-32.550781c-3.652344-2.304687-4.742187-7.132812-2.4375-10.785156 2.304688-3.648437 7.132813-4.742187 10.785156-2.433594l51.542969 32.546875c3.648438 2.304688 4.738281 7.136719 2.433594 10.785156-2.300781 3.644532-7.125 4.746094-10.78125 2.4375zm0 0" fill="#3c5a73"/><path d="m123.289062 172.425781c-1.441406 0-2.878906-.257812-4.242187-.769531l-40.53125-15.222656c-6.242187-2.34375-9.398437-9.300782-7.054687-15.542969 2.339843-6.238281 9.300781-9.398437 15.542968-7.054687l37.007813 13.898437 40.796875-10.199219c6.46875-1.617187 13.019531 2.3125 14.636718 8.78125 1.617188 6.46875-2.316406 13.019532-8.78125 14.636719l-44.449218 11.113281c-.960938.238282-1.945313.359375-2.925782.359375zm0 0" fill="#a65433"/><path d="m122.464844 238.578125h-63.484375v-92.597656c0-9.152344 7.417969-16.570313 16.570312-16.570313h30.339844c9.152344 0 16.570313 7.417969 16.570313 16.570313v92.597656zm0 0" fill="#55c7a6"/><path d="m256.839844 232.414062-42.703125-190.792968c-2.753907-8.652344-10.792969-14.53125-19.875-14.53125h-151.558594c-11.515625 0-20.855469 9.335937-20.855469 20.855468v184.46875h-8.855468c-7.175782 0-12.992188 5.820313-12.992188 12.992188v84.859375c0 7.175781 5.816406 12.988281 12.992188 12.988281h230.855468c7.175782 0 12.992188-5.8125 12.992188-12.988281zm-213.761719-184.09375h150.804687l36.453126 162.867188h-187.257813zm0 0" fill="#ffc305"/><path d="m274.664062 319.199219h-68.722656v-64.601563h68.722656c7.015626 0 12.703126 5.691406 12.703126 12.707032v39.1875c0 7.015624-5.6875 12.707031-12.703126 12.707031zm0 0" fill="#3c4646"/><path d="m319.605469 297.511719h-59.914063c-5.859375 0-10.613281-4.75-10.613281-10.613281 0-5.863282 4.753906-10.613282 10.613281-10.613282h59.914063c5.859375 0 10.613281 4.75 10.613281 10.613282 0 5.863281-4.75 10.613281-10.613281 10.613281zm0 0" fill="#55696e"/><path d="m118.1875 94.496094c0 13.4375-10.890625 24.332031-24.328125 24.332031s-24.332031-10.894531-24.332031-24.332031 10.894531-24.328125 24.332031-24.328125 24.328125 10.890625 24.328125 24.328125zm0 0" fill="#ba6746"/><path d="m118.164062 95.65625c.175782-3.605469-.449218-7.308594-1.984374-10.84375-5.347657-12.324219-19.675782-17.984375-32.003907-12.636719-9.546875 4.140625-15.089843 13.667969-14.621093 23.480469zm0 0" fill="#fa503c"/><path d="m132.414062 95.75-32.914062-.09375c.027344-6.484375 5.308594-11.722656 11.792969-11.695312l21.171875.089843c3.230468.015625 5.839844 2.644531 5.824218 5.875-.015624 3.230469-2.644531 5.835938-5.875 5.824219zm0 0" fill="#e83e29"/><path d="m496.664062 315.023438h-121.132812c-8.46875 0-15.335938-6.867188-15.335938-15.339844v-100.992188c0-8.46875 6.867188-15.335937 15.335938-15.335937h121.132812c8.46875 0 15.335938 6.867187 15.335938 15.335937v100.992188c0 8.472656-6.867188 15.339844-15.335938 15.339844zm0 0" fill="#965028"/><path d="m493.730469 275.003906-17.371094-17.367187c-1.292969-1.292969-3.394531-1.292969-4.6875 0l-17.367187 17.367187c-2.089844 2.089844-.613282 5.664063 2.34375 5.664063h.84375c1.832031 0 3.316406 1.484375 3.316406 3.316406v27.71875c0 1.832031 1.484375 3.320313 3.316406 3.320313h19.78125c1.832031 0 3.316406-1.488282 3.316406-3.320313v-27.71875c0-1.832031 1.488282-3.316406 3.316406-3.316406h.84375c2.957032 0 4.4375-3.574219 2.347657-5.664063zm0 0" fill="#fa503c"/><path d="m478.265625 183.976562h-121.132813c-8.46875 0-15.335937-6.867187-15.335937-15.335937v-100.992187c0-8.472657 6.867187-15.339844 15.335937-15.339844h121.132813c8.46875 0 15.335937 6.867187 15.335937 15.339844v100.992187c0 8.46875-6.867187 15.335937-15.335937 15.335937zm0 0" fill="#ba6746"/><path d="m475.332031 143.960938-17.367187-17.371094c-1.292969-1.292969-3.394532-1.292969-4.691406 0l-17.367188 17.371094c-2.089844 2.089843-.609375 5.660156 2.347656 5.660156h.839844c1.832031 0 3.316406 1.488281 3.316406 3.320312v27.71875c0 1.832032 1.488282 3.316406 3.320313 3.316406h19.78125c1.832031 0 3.316406-1.484374 3.316406-3.316406v-27.71875c0-1.832031 1.484375-3.320312 3.316406-3.320312h.84375c2.953125 0 4.433594-3.570313 2.34375-5.660156zm0 0" fill="#fa503c"/><path d="m174.855469 206.585938c-1.050781 0-2.113281-.214844-3.136719-.660157-3.953125-1.734375-5.753906-6.347656-4.019531-10.300781l15.636719-35.648438c1.730468-3.953124 6.347656-5.753906 10.296874-4.019531 3.953126 1.734375 5.753907 6.34375 4.019532 10.300781l-15.632813 35.648438c-1.289062 2.929688-4.15625 4.679688-7.164062 4.679688zm0 0" fill="#55879b"/><path d="m468.148438 336.300781h-147.128907c-5.863281 0-10.613281-4.75-10.613281-10.613281v-314.574219c0-5.863281 4.75-10.613281 10.613281-10.613281s10.613281 4.75 10.613281 10.613281v303.960938h136.515626c5.863281 0 10.613281 4.75 10.613281 10.613281s-4.75 10.613281-10.613281 10.613281zm0 0" fill="#9bb9c3"/><path d="m169.257812 190.339844c-.476562 0-.960937-.03125-1.445312-.085938l-45.492188-5.441406c-1.90625-.226562-3.730468-.90625-5.324218-1.984375l-40.992188-27.691406c-5.523437-3.730469-6.976562-11.230469-3.246094-16.757813 3.730469-5.523437 11.230469-6.976562 16.757813-3.246094l38.574219 26.058594 42.589844 5.089844c6.617187.792969 11.34375 6.800781 10.550781 13.417969-.734375 6.132812-5.945313 10.640625-11.972657 10.640625zm0 0" fill="#ba6746"/><path d="m111.535156 150.007812-22.019531-14.875c-5.527344-3.730468-13.027344-2.28125-16.757813 3.246094-3.734374 5.523438-2.28125 13.027344 3.242188 16.757813l22.273438 15.042969zm0 0" fill="#39ae96"/><path d="m108.566406 341.253906c0 23.628906-19.152344 42.78125-42.777344 42.78125s-42.777343-19.152344-42.777343-42.78125c0-23.625 19.152343-42.777344 42.777343-42.777344s42.777344 19.152344 42.777344 42.777344zm0 0" fill="#373c41"/><path d="m79.917969 341.253906c0 7.804688-6.324219 14.132813-14.128907 14.132813-7.804687 0-14.128906-6.328125-14.128906-14.132813 0-7.800781 6.324219-14.128906 14.128906-14.128906 7.804688 0 14.128907 6.328125 14.128907 14.128906zm0 0" fill="#fff"/><path d="m237.351562 341.253906c0 23.628906-19.152343 42.78125-42.777343 42.78125s-42.777344-19.152344-42.777344-42.78125c0-23.625 19.152344-42.777344 42.777344-42.777344s42.777343 19.152344 42.777343 42.777344zm0 0" fill="#373c41"/><path d="m208.703125 341.253906c0 7.804688-6.324219 14.132813-14.128906 14.132813-7.804688 0-14.128907-6.328125-14.128907-14.132813 0-7.800781 6.324219-14.128906 14.128907-14.128906 7.804687 0 14.128906 6.328125 14.128906 14.128906zm0 0" fill="#fff"/></svg>