<svg height="511pt" viewBox="0 -64 511.997 511" width="511pt" xmlns="http://www.w3.org/2000/svg"><path d="m496.664062 183.355469h-14.105468c6.378906-1.859375 11.042968-7.738281 11.042968-14.71875v-100.992188c0-8.46875-6.867187-15.335937-15.335937-15.335937h-121.132813c-8.46875 0-15.335937 6.867187-15.335937 15.335937v100.992188c0 8.472656 6.867187 15.335937 15.335937 15.335937h14.105469c-6.378906 1.859375-11.042969 7.738282-11.042969 14.71875v100.992188c0 8.289062 6.582032 15.027344 14.804688 15.308594v.082031h-43.367188v-303.960938c0-5.863281-4.75-10.613281-10.613281-10.613281s-10.613281 4.75-10.613281 10.613281v265.167969h-23.035156v-8.976562c0-7.019532-5.6875-12.707032-12.707032-12.707032h-17.820312v-22.183594l-42.707031-190.792968c-2.753907-8.65625-10.792969-14.53125-19.875-14.53125h-151.558594c-11.515625 0-20.855469 9.335937-20.855469 20.855468v184.46875h-8.855468c-7.175782 0-12.992188 5.816407-12.992188 12.992188v84.859375c0 7.175781 5.816406 12.988281 12.992188 12.988281h12.917968c-1.136718-32.539062 25.046875-58.929687 56.878906-58.929687 31.863282 0 58.011719 26.433593 56.878907 58.929687h15.027343c-1.132812-32.605468 25.109376-58.929687 56.878907-58.929687 23.574219 0 43.847656 14.402343 52.480469 34.871093h10.609374c7.015626 0 12.703126-5.6875 12.703126-12.703124v-8.980469h23.039062v28.175781c0 5.863281 4.75 10.613281 10.613281 10.613281h147.128907c5.859374 0 10.613281-4.75 10.613281-10.613281s-4.753907-10.613281-10.613281-10.613281h-7.339844c0-10.308594 0-19.582031 0-31.089844 0-1.832031-1.488282-3.316406-3.320313-3.316406h-.839843c-2.957032 0-4.4375-3.574219-2.347657-5.664063l17.367188-17.367187c1.296875-1.296875 3.398437-1.296875 4.691406 0l17.367187 17.367187c2.089844 2.089844.609376 5.664063-2.34375 5.664063h-.84375c-1.832031 0-3.316406 1.484375-3.316406 3.316406v31.039063h9.4375c8.472656 0 15.335938-6.867188 15.335938-15.339844v-100.992188c.003906-8.46875-6.863282-15.335937-15.332032-15.335937zm-303.03125-27.398438c-3.949218-1.734375-8.5625.066407-10.296874 4.019531l-4.515626 10.296876c1.367188 3.167968 1.960938 6.722656 1.519532 10.398437-.933594 7.824219-6.222656 14.050781-13.148438 16.589844-.691406 3.515625 1.109375 7.164062 4.527344 8.664062 3.964844 1.738281 8.570312-.078125 10.300781-4.019531l4.167969-9.503906 29.746094 18.785156h-102.46875v-18.132812c-.105469-.011719-4.605469-.550782-4.324219-.515626-2.28125-.273437-4.277344-1.367187-5.714844-2.941406l-23.402343-25.667968 27.972656 18.898437c1.59375 1.074219 3.417968 1.753906 5.324218 1.980469 48.265626 5.742187 45.566407 5.527344 46.9375 5.527344 6.027344 0 11.238282-4.503907 11.972657-10.636719.789062-6.617188-3.933594-12.625-10.550781-13.417969l-42.589844-5.09375-25.554688-17.257812 23.625 8.800781 48.84375 6.152343c3.75-2.828124 5.652344-7.722656 4.4375-12.566406-1.613281-6.46875-8.167968-10.398437-14.636718-8.78125l-42.34375 10.230469v-1.789063c0-9.148437-7.417969-16.566406-16.570313-16.566406h-30.339844c-9.152343 0-16.570312 7.417969-16.570312 16.566406v65.210938h-6.902344v-162.867188h150.804687l34.003907 151.921876-35.351563-22.320313 5.117188-11.667969c1.734375-3.953125-.0625-8.5625-4.019532-10.296875zm279.351563-6.335937h-.839844c-1.832031 0-3.316406 1.484375-3.316406 3.316406v27.71875c0 1.832031-1.484375 3.316406-3.316406 3.316406h-19.785157c-1.832031 0-3.316406-1.484375-3.316406-3.316406v-27.71875c0-1.832031-1.484375-3.316406-3.316406-3.316406h-.839844c-2.957031 0-4.4375-3.574219-2.347656-5.664063l17.367188-17.367187c1.296874-1.292969 3.398437-1.292969 4.691406 0l17.367187 17.367187c2.089844 2.089844.609375 5.664063-2.347656 5.664063zm0 0"/><path d="m126.503906 85.238281-17.019531-.628906c-4.046875-9.402344-13.242187-15.109375-22.953125-15.109375-17.503906 0-29.742188 17.71875-23.226562 34.191406 3.886718 9.8125 13.292968 15.800782 23.246093 15.800782 10.464844 0 20.242188-6.625 23.71875-17.210938l-17.988281-6.285156c45.40625 1.671875 31.1875 1.25 34.007812 1.25 3.214844 0 5.878907-2.546875 5.996094-5.785156.125-3.316407-2.464844-6.101563-5.78125-6.222657zm0 0"/><path d="m82.789062 298.476562c-23.625 0-42.777343 19.152344-42.777343 42.777344s19.152343 42.777344 42.777343 42.777344 42.777344-19.152344 42.777344-42.777344-19.152344-42.777344-42.777344-42.777344zm0 56.90625c-7.804687 0-14.128906-6.324218-14.128906-14.128906 0-7.804687 6.324219-14.128906 14.128906-14.128906 7.804688 0 14.128907 6.324219 14.128907 14.128906 0 7.804688-6.324219 14.128906-14.128907 14.128906zm0 0"/><path d="m211.574219 298.476562c-23.625 0-42.777344 19.152344-42.777344 42.777344s19.152344 42.777344 42.777344 42.777344 42.777343-19.152344 42.777343-42.777344-19.152343-42.777344-42.777343-42.777344zm0 56.90625c-7.804688 0-14.128907-6.324218-14.128907-14.128906 0-7.804687 6.324219-14.128906 14.128907-14.128906 7.804687 0 14.128906 6.324219 14.128906 14.128906 0 7.804688-6.324219 14.128906-14.128906 14.128906zm0 0"/></svg>