<svg id="Layer_1" height="512" viewBox="0 0 512 512" width="512" xmlns="http://www.w3.org/2000/svg" data-name="Layer 1"><path d="m496 415-20.25-64.73-.05.02-219.9.08.04 64.57v.06z" fill="#72bcef"/><path d="m475.75 350.27-18.8-60.09-106.5.02-8.19-66.91v-.05l-260.32-1.01-30.67 89.66 113.72.71.41 102.4h90.44v-.06l-.04-64.57 219.9-.08z" fill="#7ae280"/><path d="m443.2 245.43-.01-.01-18.53-23.33-82.4 1.15v.05l8.19 66.91 106.5-.02z" fill="#72bcef"/><path d="m164.99 312.6-113.72-.71-35.27 103.11h149.4z" fill="#72bcef"/><path d="m404.66 222.09a35.426 35.426 0 0 1 -4.9-20.09c1.15-17.68 15.27-33.34 34.73-33.34s33.58 15.66 34.73 33.34a35.858 35.858 0 0 1 -7.35 23.85l-17.68 23.57-9.7 12.92-27.38-36.49a39.674 39.674 0 0 1 -2.45-3.76z" fill="#f2838d"/><path d="m340.91 332.26a34.885 34.885 0 0 1 -3.87 18.27 36.338 36.338 0 0 1 -3.48 5.58l-27.38 36.5-27.38-36.5a39.574 39.574 0 0 1 -3.39-5.51 35.011 35.011 0 0 1 -3.96-18.34c1.15-17.67 15.28-33.33 34.73-33.33s33.58 15.66 34.73 33.33z" fill="#f2838d"/><ellipse cx="306.04" cy="333.48" fill="#fff27d" rx="18.15" ry="18.1"/><path d="m434.35 185.12a18.1 18.1 0 1 1 -18.16 18.1 18.125 18.125 0 0 1 18.16-18.1z" fill="#fff27d"/><path d="m307.89 333.48a18.063 18.063 0 0 1 8.15-15.1 18.1 18.1 0 1 0 0 30.2 18.059 18.059 0 0 1 -8.15-15.1z" fill="#d8c660"/><path d="m436.19 203.22a18.06 18.06 0 0 1 8.156-15.1 18.1 18.1 0 1 0 0 30.2 18.066 18.066 0 0 1 -8.156-15.1z" fill="#d8c660"/><path d="m194.99 312.6h-30l.41 102.4h30z" fill="#5cbf5c"/><path d="m51.27 311.89h30l30.67-89.66h-30z" fill="#5cbf5c"/><path d="m51.27 311.89-35.27 103.11h30l35.206-102.923z" fill="#5babce"/><path d="m170.81 283.74a43.192 43.192 0 0 1 -6.04 24.72 44.835 44.835 0 0 1 -2.95 4.43l-33.46 44.6-33.47-44.6c-.28-.39-.56-.78-.84-1.18a44.189 44.189 0 0 1 -8.14-27.97c1.41-21.61 18.67-40.75 42.45-40.75s41.04 19.14 42.45 40.75z" fill="#f2838d"/><path d="m127.96 263.1a22.125 22.125 0 1 1 -22.18 22.12 22.156 22.156 0 0 1 22.18-22.12z" fill="#fff27d"/><path d="m125.78 285.22a22.113 22.113 0 0 1 12.183-19.743 22.125 22.125 0 1 0 0 39.5 22.122 22.122 0 0 1 -12.183-19.757z" fill="#d8c660"/><path d="m319.59 153.6c-1.96-30.01-25.94-56.6-58.97-56.6s-57.02 26.59-58.98 56.6c-.97 14.64 3.92 28.79 12.48 40.5l46.5 61.97 46.49-61.97a60.894 60.894 0 0 0 12.48-40.5z" fill="#f2838d"/><path d="m260.37 121.85a34.625 34.625 0 1 1 -34.73 34.62 34.676 34.676 0 0 1 34.73-34.62z" fill="#fff27d"/><path d="m245.64 156.47a34.645 34.645 0 0 1 24.73-33.156 34.625 34.625 0 1 0 0 66.322 34.651 34.651 0 0 1 -24.73-33.166z" fill="#d8c660"/></svg>