<svg id="Layer_1" height="512" viewBox="0 0 512 512" width="512" xmlns="http://www.w3.org/2000/svg" data-name="Layer 1"><path d="m132.261 360.493a5 5 0 0 1 -8 0l-32.807-43.728-36.7.112-31.854 93.123h137.385l-.333-86.416z"/><path d="m259.278 186.1a29.626 29.626 0 1 0 -29.729-29.626 29.712 29.712 0 0 0 29.729 29.626z"/><path d="m260.521 247.738 42.493-56.638a55.793 55.793 0 0 0 11.491-37.16 56.674 56.674 0 0 0 -16.385-36.362 53.163 53.163 0 0 0 -75.2 0 56.66 56.66 0 0 0 -16.384 36.349c-.848 12.683 3.245 25.9 11.526 37.222zm-1.243-130.89a39.626 39.626 0 1 1 -39.729 39.625 39.722 39.722 0 0 1 39.729-39.625z"/><path d="m450.054 285.18-7.811-24.967-3.85 5.132a5 5 0 0 1 -8 0l-27.381-36.5c-.412-.563-.806-1.133-1.188-1.709l-54.03.991 6.982 57.071z"/><path d="m126.867 268.1a17.122 17.122 0 1 0 17.188 17.121 17.174 17.174 0 0 0 -17.188-17.121z"/><path d="m433.253 216.315a13.1 13.1 0 1 0 -13.154-13.1 13.141 13.141 0 0 0 13.154 13.1z"/><path d="m434.394 254.013 23.382-31.166a30.807 30.807 0 0 0 6.36-20.512c-.92-14.1-12.3-28.673-29.742-28.673s-28.823 14.571-29.742 28.659a31.6 31.6 0 0 0 6.4 20.575zm-1.141-73.9a23.1 23.1 0 1 1 -23.154 23.1 23.154 23.154 0 0 1 23.154-23.098z"/><path d="m266.366 331.929c1.39-21.306 18.837-38 39.72-38s38.33 16.695 39.721 38.01a39.1 39.1 0 0 1 -1.507 13.578l124.562-.212-15.68-50.124-102.829.023a5 5 0 0 1 -4.963-4.392l-7.646-62.5-50.848.933-22.376 29.825a5 5 0 0 1 -8 0l-24.62-32.821-146.473.961-27.25 79.656 27.23-.083a47.828 47.828 0 0 1 -4.583-23.383c1.66-25.459 22.5-45.408 47.437-45.408s45.777 19.949 47.438 45.417a47.885 47.885 0 0 1 -5.8 25.951l.386 100.64h80.453l-.033-59.624a5 5 0 0 1 1.49-3.564 4.882 4.882 0 0 1 3.584-1.438l12.16.181a38.873 38.873 0 0 1 -1.573-13.626z"/><path d="m306.086 303.928c-17.447 0-28.823 14.572-29.742 28.66a31.612 31.612 0 0 0 6.4 20.575l23.345 31.115 23.382-31.165a30.8 30.8 0 0 0 6.36-20.511c-.922-14.102-12.298-28.674-29.745-28.674zm-1.141 52.653a23.1 23.1 0 1 1 23.154-23.1 23.153 23.153 0 0 1 -23.154 23.1z"/><path d="m471.989 355.3-132.1.224c-.745 1.229-1.548 2.432-2.424 3.6l-27.378 36.49a5 5 0 0 1 -8 0l-27.381-36.5c-.832-1.138-1.6-2.306-2.313-3.493l-11.684-.174.03 54.552h228.361z"/><path d="m304.945 320.382a13.1 13.1 0 1 0 13.154 13.1 13.141 13.141 0 0 0 -13.154-13.1z"/><path d="m128.261 247.993c-21.975 0-36.3 18.339-37.459 36.068-.589 8.8 2.263 17.99 8.029 25.875l29.43 39.225 29.467-39.275a38.761 38.761 0 0 0 7.994-25.812c-1.158-17.742-15.486-36.081-37.461-36.081zm-1.394 64.354a27.122 27.122 0 1 1 27.188-27.122 27.186 27.186 0 0 1 -27.188 27.122z"/></svg>